<svg xmlns="http://www.w3.org/2000/svg" width="18.46" height="18" viewBox="0 0 18.46 18">
  <path id="icons8-chat" d="M7,6A3.01,3.01,0,0,0,4,9V19.169a1.179,1.179,0,0,0,1.832.934h0l1.994-1.45a3.014,3.014,0,0,0,2.866,2.116h5.774L20.628,23.8h0a1.179,1.179,0,0,0,1.832-.934V12.692a3.01,3.01,0,0,0-3-3h-.692V9a3.01,3.01,0,0,0-3-3ZM7,7.385h8.769A1.605,1.605,0,0,1,17.384,9v5.077a1.605,1.605,0,0,1-1.615,1.615h-6a.692.692,0,0,0-.408.133L5.385,18.717V9A1.605,1.605,0,0,1,7,7.385Zm11.769,3.692h.692a1.605,1.605,0,0,1,1.615,1.615v9.717L17.1,19.516a.692.692,0,0,0-.407-.133h-6a1.605,1.605,0,0,1-1.615-1.615v-.025l.918-.667h5.774a3.01,3.01,0,0,0,3-3Z" transform="translate(-4 -6)" fill="#800120"/>
</svg>
