<svg xmlns="http://www.w3.org/2000/svg" width="17.982" height="18" viewBox="0 0 17.982 18">
  <path id="icons8-geography" d="M12.98,3.978a.674.674,0,0,0-.116.013,8.989,8.989,0,0,0,.005,17.976.674.674,0,0,0,.247,0,8.989,8.989,0,0,0,0-17.976A.674.674,0,0,0,12.98,3.978ZM12.317,5.5V9.383H9.89a10.326,10.326,0,0,1,.681-1.976A3.961,3.961,0,0,1,12.317,5.5Zm1.349,0a3.961,3.961,0,0,1,1.746,1.911,10.326,10.326,0,0,1,.681,1.976H13.665Zm-3.837.529a7.454,7.454,0,0,0-.457.765,11.537,11.537,0,0,0-.9,2.593H6.246A7.642,7.642,0,0,1,9.828,6.025Zm6.324,0a7.642,7.642,0,0,1,3.583,3.358H17.512a11.537,11.537,0,0,0-.9-2.593A7.449,7.449,0,0,0,16.153,6.025ZM5.685,10.731H8.278a15.689,15.689,0,0,0-.232,2.248,15.689,15.689,0,0,0,.232,2.248H5.685a7.68,7.68,0,0,1,0-4.5Zm3.944,0h2.688v4.5H9.629a14.246,14.246,0,0,1-.234-2.248A14.246,14.246,0,0,1,9.629,10.731Zm4.036,0h2.688a14.246,14.246,0,0,1,.234,2.248,14.246,14.246,0,0,1-.234,2.248H13.665Zm4.039,0H20.3a7.68,7.68,0,0,1,0,4.5H17.7a15.689,15.689,0,0,0,.232-2.248A15.689,15.689,0,0,0,17.7,10.731ZM6.246,16.576H8.47a11.537,11.537,0,0,0,.9,2.593,7.449,7.449,0,0,0,.458.765A7.642,7.642,0,0,1,6.246,16.576Zm3.644,0h2.427v3.887a3.961,3.961,0,0,1-1.746-1.911A10.326,10.326,0,0,1,9.89,16.576Zm3.776,0h2.427a10.326,10.326,0,0,1-.681,1.976,3.961,3.961,0,0,1-1.746,1.911Zm3.847,0h2.224a7.642,7.642,0,0,1-3.582,3.358,7.455,7.455,0,0,0,.457-.765A11.537,11.537,0,0,0,17.512,16.576Z" transform="translate(-4 -3.978)" fill="#800120"/>
</svg>
