<svg xmlns="http://www.w3.org/2000/svg" width="17.052" height="18" viewBox="0 0 17.052 18">
  <path id="icons8-export" d="M9.605,5A2.616,2.616,0,0,0,7,7.605V20.395A2.616,2.616,0,0,0,9.605,23h5.684a2.616,2.616,0,0,0,2.605-2.605v-4.5H16.474v4.5a1.174,1.174,0,0,1-1.184,1.184H9.605a1.174,1.174,0,0,1-1.184-1.184V7.605A1.174,1.174,0,0,1,9.605,6.421h5.684a1.174,1.174,0,0,1,1.184,1.184v4.5h1.421v-4.5A2.616,2.616,0,0,0,15.289,5ZM20.019,9.966a.711.711,0,0,0-.495,1.22l2.1,2.1h-10.6a.711.711,0,1,0,0,1.421h10.6l-2.1,2.1a.711.711,0,1,0,1,1L23.844,14.5a.711.711,0,0,0,0-1l-3.316-3.316A.711.711,0,0,0,20.019,9.966Z" transform="translate(-7 -5)" fill="#800120"/>
</svg>
