<svg xmlns="http://www.w3.org/2000/svg" width="18" height="14.571" viewBox="0 0 18 14.571">
  <path id="icons8-smart_card" d="M5.357,7A2.367,2.367,0,0,0,3,9.357v9.857a2.367,2.367,0,0,0,2.357,2.357H18.643A2.367,2.367,0,0,0,21,19.214V9.357A2.367,2.367,0,0,0,18.643,7Zm0,1.286H18.643a1.062,1.062,0,0,1,1.071,1.071v9.857a1.062,1.062,0,0,1-1.071,1.071H5.357a1.062,1.062,0,0,1-1.071-1.071V9.357A1.062,1.062,0,0,1,5.357,8.286ZM14.786,10a1.929,1.929,0,1,0,1.929,1.929A1.929,1.929,0,0,0,14.786,10ZM6.857,12.571A.857.857,0,0,0,6,13.429v1.714A.857.857,0,0,0,6.857,16H9a.857.857,0,0,0,.857-.857V13.429A.857.857,0,0,0,9,12.571Zm5.571,2.143a.857.857,0,0,0-.857.857v1.071c0,1.065,1.439,1.929,3.214,1.929S18,17.708,18,16.643V15.571a.857.857,0,0,0-.857-.857Z" transform="translate(-3 -7)" fill="#800120"/>
</svg>
