<svg xmlns="http://www.w3.org/2000/svg" width="11.7" height="18" viewBox="0 0 11.7 18">
  <path id="icons8-iphone_x" d="M13.475,4A2.485,2.485,0,0,0,11,6.475v13.05A2.485,2.485,0,0,0,13.475,22h6.75A2.485,2.485,0,0,0,22.7,19.525V6.475A2.485,2.485,0,0,0,20.225,4h-6.75Zm0,1.35h.708l.263.526a.675.675,0,0,0,.6.374h3.6a.675.675,0,0,0,.6-.374l.263-.526h.708A1.115,1.115,0,0,1,21.35,6.475v13.05a1.115,1.115,0,0,1-1.125,1.125h-6.75a1.115,1.115,0,0,1-1.125-1.125V6.475A1.115,1.115,0,0,1,13.475,5.35Z" transform="translate(-11 -4)" fill="#6c6c6c"/>
</svg>
