<svg xmlns="http://www.w3.org/2000/svg" width="18" height="18" viewBox="0 0 18 18">
  <path id="icons8-private" d="M13,4a9,9,0,1,0,9,9A9.01,9.01,0,0,0,13,4Zm0,1.35A7.65,7.65,0,1,1,5.35,13,7.64,7.64,0,0,1,13,5.35Zm.214,1.79a.675.675,0,0,0-.664.685V12.1H12.1V8.275a.675.675,0,1,0-1.35,0V12.1H10.3V9.625a.675.675,0,1,0-1.35,0V15.25a2.7,2.7,0,0,0,2.7,2.7h1.98A2.061,2.061,0,0,0,15.3,17.1c0-.005.011-.009.016-.015l2.925-3.42a.675.675,0,1,0-1.026-.877l-1.512,1.3V8.725a.675.675,0,1,0-1.35,0V12.1H13.9V7.825a.675.675,0,0,0-.686-.685Z" transform="translate(-4 -4)" fill="#800120"/>
</svg>
