<svg xmlns="http://www.w3.org/2000/svg" width="14.131" height="17.664" viewBox="0 0 14.131 17.664">
  <path id="icons8-account" d="M15.066,4a4.416,4.416,0,1,0,4.416,4.416A4.426,4.426,0,0,0,15.066,4Zm0,1.325a3.091,3.091,0,1,1-3.091,3.091A3.081,3.081,0,0,1,15.066,5.325ZM9.987,14.6A2,2,0,0,0,8,16.586v.53a4,4,0,0,0,2.079,3.265,9.294,9.294,0,0,0,4.986,1.284,9.294,9.294,0,0,0,4.986-1.284,4,4,0,0,0,2.079-3.265v-.53A2,2,0,0,0,20.144,14.6Zm0,1.325H20.144a.652.652,0,0,1,.662.662v.53a2.691,2.691,0,0,1-1.467,2.148,8.053,8.053,0,0,1-4.274,1.076,8.053,8.053,0,0,1-4.274-1.076,2.691,2.691,0,0,1-1.467-2.148v-.53A.652.652,0,0,1,9.987,15.923Z" transform="translate(-8 -4)" fill="#afafaf"/>
</svg>
