<svg xmlns="http://www.w3.org/2000/svg" width="17" height="17" viewBox="0 0 17 17">
  <path id="icons8-today" d="M9.069,6A3.08,3.08,0,0,0,6,9.069V19.931A3.08,3.08,0,0,0,9.069,23H19.931A3.08,3.08,0,0,0,23,19.931V9.069A3.08,3.08,0,0,0,19.931,6Zm0,1.417H19.931a1.643,1.643,0,0,1,1.653,1.653v.708H7.417V9.069A1.643,1.643,0,0,1,9.069,7.417ZM7.417,11.194H21.583v8.736a1.643,1.643,0,0,1-1.653,1.653H9.069a1.643,1.643,0,0,1-1.653-1.653Zm10.644,1.882a.708.708,0,0,0-.546.242l-3.751,4.167-1.833-1.833a.708.708,0,1,0-1,1l2.361,2.361a.708.708,0,0,0,1.027-.027l4.25-4.722a.708.708,0,0,0-.507-1.19Z" transform="translate(-6 -6)" fill="#afafaf"/>
</svg>
