<svg xmlns="http://www.w3.org/2000/svg" width="18" height="18" viewBox="0 0 18 18">
  <path id="icons8-email" d="M13,4a9,9,0,1,0,3.162,17.429.675.675,0,1,0-.475-1.264A7.651,7.651,0,1,1,20.65,13v1.125a2.025,2.025,0,1,1-4.05,0V9.175a.675.675,0,1,0-1.35,0v.48A3.8,3.8,0,0,0,12.55,8.5,4.3,4.3,0,0,0,8.5,13a4.3,4.3,0,0,0,4.05,4.5,3.892,3.892,0,0,0,3.158-1.689A3.371,3.371,0,0,0,22,14.125V13A9.01,9.01,0,0,0,13,4Zm-.45,5.85A2.952,2.952,0,0,1,15.25,13a2.952,2.952,0,0,1-2.7,3.15A2.952,2.952,0,0,1,9.85,13,2.952,2.952,0,0,1,12.55,9.85Z" transform="translate(-4 -4)" fill="#800120"/>
</svg>
