<svg id="icons8-table_top_view" xmlns="http://www.w3.org/2000/svg" width="18" height="18" viewBox="0 0 18 18">
  <circle id="Ellipse_11" data-name="Ellipse 11" cx="4.987" cy="4.987" r="4.987" transform="translate(4.013 4.013)" fill="#800120"/>
  <rect id="Rectangle_162" data-name="Rectangle 162" width="3.325" height="3.325" transform="matrix(0.707, -0.707, 0.707, 0.707, 0, 2.351)" fill="#800120"/>
  <rect id="Rectangle_163" data-name="Rectangle 163" width="3.325" height="3.325" transform="matrix(0.707, 0.707, -0.707, 0.707, 15.649, 0)" fill="#800120"/>
  <rect id="Rectangle_165" data-name="Rectangle 165" width="3.325" height="3.325" transform="matrix(0.707, 0.707, -0.707, 0.707, 15.649, 13.298)" fill="#800120"/>
  <circle id="Ellipse_12" data-name="Ellipse 12" cx="4.987" cy="4.987" r="4.987" transform="translate(4.013 4.013)" fill="#800120"/>
  <rect id="Rectangle_167" data-name="Rectangle 167" width="3.325" height="3.325" transform="matrix(0.707, 0.707, -0.707, 0.707, 15.649, 0)" fill="#800120"/>
  <rect id="Rectangle_168" data-name="Rectangle 168" width="3.325" height="3.325" transform="matrix(0.707, -0.707, 0.707, 0.707, 0, 15.649)" fill="#800120"/>
  <rect id="Rectangle_169" data-name="Rectangle 169" width="3.325" height="3.325" transform="matrix(0.707, 0.707, -0.707, 0.707, 15.649, 13.298)" fill="#800120"/>
</svg>
