<svg xmlns="http://www.w3.org/2000/svg" width="20" height="18" viewBox="0 0 20 18">
  <path id="icons8-tune" d="M18.25,6a2.736,2.736,0,0,0-2.061.877A2.66,2.66,0,0,0,15.628,8H4.75a.75.75,0,1,0,0,1.5H15.628a2.66,2.66,0,0,0,.562,1.123,2.859,2.859,0,0,0,4.121,0A2.66,2.66,0,0,0,20.872,9.5H23.25a.75.75,0,1,0,0-1.5H20.872a2.66,2.66,0,0,0-.562-1.123A2.736,2.736,0,0,0,18.25,6Zm0,1.5a1.141,1.141,0,0,1,.939.373,1.393,1.393,0,0,1,0,1.754A1.141,1.141,0,0,1,18.25,10a1.141,1.141,0,0,1-.939-.373,1.393,1.393,0,0,1,0-1.754A1.141,1.141,0,0,1,18.25,7.5Zm-8.5,4.75a2.736,2.736,0,0,0-2.061.877,2.66,2.66,0,0,0-.562,1.123H4.75a.75.75,0,1,0,0,1.5H7.128a2.66,2.66,0,0,0,.562,1.123,2.736,2.736,0,0,0,2.061.877,2.736,2.736,0,0,0,2.061-.877,2.66,2.66,0,0,0,.562-1.123H23.25a.75.75,0,1,0,0-1.5H12.372a2.66,2.66,0,0,0-.562-1.123A2.736,2.736,0,0,0,9.75,12.25Zm0,1.5a1.141,1.141,0,0,1,.939.373,1.393,1.393,0,0,1,0,1.754,1.141,1.141,0,0,1-.939.373,1.141,1.141,0,0,1-.939-.373,1.393,1.393,0,0,1,0-1.754A1.141,1.141,0,0,1,9.75,13.75Zm7.5,4.75a2.736,2.736,0,0,0-2.061.877,2.66,2.66,0,0,0-.562,1.123H4.75a.75.75,0,1,0,0,1.5h9.878a2.66,2.66,0,0,0,.562,1.123,2.859,2.859,0,0,0,4.121,0A2.66,2.66,0,0,0,19.872,22H23.25a.75.75,0,1,0,0-1.5H19.872a2.66,2.66,0,0,0-.562-1.123A2.736,2.736,0,0,0,17.25,18.5Zm0,1.5a1.141,1.141,0,0,1,.939.373,1.393,1.393,0,0,1,0,1.754,1.141,1.141,0,0,1-.939.373,1.141,1.141,0,0,1-.939-.373,1.393,1.393,0,0,1,0-1.754A1.141,1.141,0,0,1,17.25,20Z" transform="translate(-4 -6)" fill="#800120"/>
</svg>
